<?xml version="1.0" encoding="UTF-8" standalone="no"?>
<!-- Created with Inkscape (http://www.inkscape.org/) -->

<svg
   version="1.1"
   id="svg258"
   width="395.97256"
   height="140.342"
   viewBox="0 0 395.97258 140.342"
   sodipodi:docname="logo-readme.svg"
   inkscape:version="1.2.1 (9c6d41e4, 2022-07-14)"
   xmlns:inkscape="http://www.inkscape.org/namespaces/inkscape"
   xmlns:sodipodi="http://sodipodi.sourceforge.net/DTD/sodipodi-0.dtd"
   xmlns="http://www.w3.org/2000/svg"
   xmlns:svg="http://www.w3.org/2000/svg">
  <defs
     id="defs262" />
  <sodipodi:namedview
     id="namedview260"
     pagecolor="#ffffff"
     bordercolor="#000000"
     borderopacity="0.25"
     inkscape:showpageshadow="2"
     inkscape:pageopacity="0.0"
     inkscape:pagecheckerboard="0"
     inkscape:deskcolor="#d1d1d1"
     showgrid="false"
     inkscape:zoom="1.2836708"
     inkscape:cx="136.7173"
     inkscape:cy="115.68387"
     inkscape:window-width="1384"
     inkscape:window-height="847"
     inkscape:window-x="56"
     inkscape:window-y="25"
     inkscape:window-maximized="1"
     inkscape:current-layer="g266">
    <inkscape:page
       x="0"
       y="0"
       id="page264"
       width="395.9726"
       height="140.342" />
  </sodipodi:namedview>
  <g
     id="g266"
     inkscape:groupmode="layer"
     inkscape:label="Page 1"
     transform="matrix(1.3333333,0,0,-1.3333333,-724.2607,402.95804)">
    <g
       id="g4913"
       inkscape:export-filename="../code/matpellzo/abloc/g4913.png"
       inkscape:export-xdpi="200"
       inkscape:export-ydpi="200">
      <path
         d="m 784.79296,253.64754 h 26.72 v -7.281 h -26.72 v 7.281"
         style="fill:#bab9c0;fill-opacity:1;fill-rule:nonzero;stroke:none;stroke-width:0.1"
         id="path270" />
      <path
         id="path272"
         style="fill:#d5d5dd;fill-opacity:1;fill-rule:nonzero;stroke:none;stroke-width:0.1"
         d="m 799.07153,251.0514 h -0.0615 c -1.20811,28.46331 -24.26648,51.167 -52.5586,51.167 H 560.84399 c -9.74699,0 -17.64844,-8.03362 -17.64844,-17.94288 v -33.22412 -2.02441 -33.61231 c 0,-10.0181 7.90145,-18.13916 17.64844,-18.13916 h 185.60742 c 28.29955,0 51.36165,22.96491 52.5586,51.75147 h 0.0615 c -0.002,0.33759 -0.0227,0.67026 -0.0308,1.00635 0.008,0.33991 0.0288,0.67662 0.0308,1.01806 z" />
      <path
         d="m 820.21896,258.98454 v 26.721 h 7.281 v -26.721 h -7.281"
         style="fill:#bab9c0;fill-opacity:1;fill-rule:nonzero;stroke:none;stroke-width:0.1"
         id="path278" />
      <path
         d="m 816.19496,273.22954 v 12.476 h 15.329 v -12.476 h -15.329"
         style="fill:#3d4056;fill-opacity:1;fill-rule:nonzero;stroke:none;stroke-width:0.1"
         id="path280" />
      <path
         d="m 823.87996,233.71154 c -9,0 -16.295,7.296 -16.295,16.295 0,9 7.295,16.296 16.295,16.296 8.999,0 16.295,-7.296 16.295,-16.296 0,-8.999 -7.296,-16.295 -16.295,-16.295"
         style="fill:#e0e0e9;fill-opacity:1;fill-rule:nonzero;stroke:none;stroke-width:0.1"
         id="path282" />
      <path
         d="m 823.87996,237.64054 c -6.83,0 -12.367,5.537 -12.367,12.366 0,6.83 5.537,12.367 12.367,12.367 6.83,0 12.366,-5.537 12.366,-12.367 0,-6.829 -5.536,-12.366 -12.366,-12.366"
         style="fill:#3d4056;fill-opacity:1;fill-rule:nonzero;stroke:none;stroke-width:0.1"
         id="path284" />
      <path
         id="path274-3"
         style="fill:#e0e0e9;fill-opacity:1;fill-rule:nonzero;stroke:none;stroke-width:0.1"
         d="m 799.07153,251.0514 h -0.54786 C 792.60314,227.83912 772.05978,210.714 747.62035,210.714 H 562.01146 c -9.74699,0 -17.64697,8.12106 -17.64697,18.13916 v 22.19824 h -1.16895 v -35.63526 c 0,-10.0181 7.90145,-18.14062 17.64844,-18.14062 h 185.60743 c 28.96097,0 52.45112,24.04743 52.62012,53.77588 z" />
      <path
         d="m 613.14096,302.21854 h -52.297 c -9.747,0 -17.648,-7.901 -17.648,-17.647 v -69.963 c 0,-9.746 7.901,-17.646 17.648,-17.646 h 52.297 v 105.256"
         style="fill:#3d4056;fill-opacity:1;fill-rule:nonzero;stroke:none;stroke-width:0.1"
         id="path276"
         sodipodi:nodetypes="csssscc" />
      <path
         id="path274-3-9"
         style="fill:#5d6385;fill-opacity:1;fill-rule:nonzero;stroke:none;stroke-width:0.1"
         d="m 613.14037,210.40052 h -51.1289 c -9.74698,0 -17.64698,8.12107 -17.64698,18.13916 v 22.19825 h -1.16894 v -35.63526 c 0,-10.01809 7.90146,-18.14063 17.64844,-18.14063 h 52.29638 z"
         sodipodi:nodetypes="cssccsscc" />
      <text
         xml:space="preserve"
         style="font-style:normal;font-variant:normal;font-weight:bold;font-stretch:normal;font-size:62.7853px;font-family:'Jost*';-inkscape-font-specification:'Jost* Bold';opacity:1;fill:#1930c3;fill-opacity:1;stroke-width:1.70079;stroke-linecap:round;stroke-linejoin:round;paint-order:stroke fill markers"
         x="625.29767"
         y="-227.57616"
         id="text2853"
         transform="scale(1,-1)"><tspan
           sodipodi:role="line"
           id="tspan2851"
           style="font-style:normal;font-variant:normal;font-weight:bold;font-stretch:normal;font-size:62.7853px;font-family:'Jost*';-inkscape-font-specification:'Jost* Bold';fill:#1930c3;fill-opacity:1;stroke-width:1.70079"
           x="625.29767"
           y="-227.57616">bloc</tspan></text>
      <text
         xml:space="preserve"
         style="font-style:normal;font-variant:normal;font-weight:bold;font-stretch:normal;font-size:62.7853px;font-family:'Jost*';-inkscape-font-specification:'Jost* Bold';opacity:1;fill:#1930c3;fill-opacity:1;stroke-width:1.70079;stroke-linecap:round;stroke-linejoin:round;paint-order:stroke fill markers"
         x="564.43958"
         y="-227.57616"
         id="text2853-0"
         transform="scale(1,-1)"><tspan
           sodipodi:role="line"
           id="tspan2851-5"
           style="font-style:normal;font-variant:normal;font-weight:bold;font-stretch:normal;font-size:62.7853px;font-family:'Jost*';-inkscape-font-specification:'Jost* Bold';fill:#1930c3;fill-opacity:1;stroke-width:1.70079"
           x="564.43958"
           y="-227.57616"><tspan
             style="fill:#93a0f1;fill-opacity:1"
             id="tspan3092-5">a</tspan></tspan></text>
    </g>
  </g>
</svg>
