<?xml version="1.0" encoding="UTF-8" standalone="no"?>
<!-- Created with Inkscape (http://www.inkscape.org/) -->

<svg
   width="110mm"
   height="110mm"
   viewBox="0 0 110 110"
   version="1.1"
   id="svg5"
   xml:space="preserve"
   inkscape:version="1.2.1 (9c6d41e4, 2022-07-14)"
   sodipodi:docname="logo-diver.svg"
   xmlns:inkscape="http://www.inkscape.org/namespaces/inkscape"
   xmlns:sodipodi="http://sodipodi.sourceforge.net/DTD/sodipodi-0.dtd"
   xmlns="http://www.w3.org/2000/svg"
   xmlns:svg="http://www.w3.org/2000/svg"><sodipodi:namedview
     id="namedview7"
     pagecolor="#ffffff"
     bordercolor="#000000"
     borderopacity="0.25"
     inkscape:showpageshadow="2"
     inkscape:pageopacity="0.0"
     inkscape:pagecheckerboard="0"
     inkscape:deskcolor="#d1d1d1"
     inkscape:document-units="mm"
     showgrid="false"
     inkscape:zoom="0.5946522"
     inkscape:cx="147.14484"
     inkscape:cy="147.14484"
     inkscape:window-width="1384"
     inkscape:window-height="847"
     inkscape:window-x="56"
     inkscape:window-y="25"
     inkscape:window-maximized="1"
     inkscape:current-layer="layer1" /><defs
     id="defs2" /><g
     inkscape:label="Layer 1"
     inkscape:groupmode="layer"
     id="layer1"
     transform="translate(-56.020359,-47.185046)"><g
       id="g4266"
       transform="translate(2.6720944,5.8003859)"><path
         style="fill:#000000;stroke-width:1"
         d="m 127.51799,145.207 c -1.05662,-0.47679 -12.9859,-12.51144 -13.34495,-13.46283 -0.5138,-1.36147 -0.30489,-2.38462 1.72634,-8.45482 1.28432,-3.83809 1.95834,-6.23876 1.85716,-6.61458 -0.11807,-0.43854 -2.54653,-1.98196 -9.46244,-6.0139 L 98.99049,105.23691 88.299238,94.668662 c -5.88019,-5.81255 -10.805329,-10.78142 -10.944757,-11.04194 -0.29161,-0.54488 -3.943781,-24.87169 -3.943781,-26.26921 0,-1.03421 -0.02307,-1.0454 -2.775439,-1.34615 -2.284207,-0.24959 -5.744484,-1.31265 -8.196315,-2.51805 -2.429659,-1.1945 -5.461952,-3.346499 -6.110839,-4.336819 -0.40882,-0.62394 -0.409354,-0.72064 -0.0074,-1.33416 0.643497,-0.9821 1.531135,-0.84103 3.185194,0.50622 1.70523,1.38893 4.221921,2.827259 6.231845,3.561589 3.303172,1.20682 4.780391,1.44792 9.189228,1.49975 4.168201,0.049 4.320665,0.0705 5.186749,0.73108 0.490773,0.37434 1.024565,1.01528 1.186201,1.42432 0.16164,0.40904 1.498259,5.44443 2.970266,11.18976 1.472007,5.74532 2.757747,10.59145 2.857198,10.76916 0.168307,0.30074 19.005782,15.01105 20.371402,15.90816 0.34009,0.22341 2.06649,1.02202 3.83646,1.77469 20.99059,8.926098 21.69819,9.244288 22.58235,10.154668 1.0529,1.08414 1.79817,3.3223 1.53038,4.59594 -0.32089,1.52622 -4.87893,12.35472 -6.89425,16.37867 -1.079,2.15439 -1.96182,4.14912 -1.96182,4.43271 0,0.29549 1.44019,2.05598 3.37344,4.12368 1.85539,1.98443 3.51689,3.92677 3.69223,4.31632 0.51799,1.15084 0.4029,2.96782 -0.26239,4.14248 -1.10172,1.94523 -3.80846,2.80897 -5.87724,1.87547 z m 2.63336,-2.52679 c 0.78085,-0.29688 1.27848,-1.34435 0.99711,-2.09884 -0.10498,-0.28153 -1.69228,-2.1182 -3.52732,-4.08148 -2.77439,-2.96828 -3.38799,-3.77434 -3.64245,-4.78489 -0.1683,-0.6684 -0.22696,-1.5416 -0.13035,-1.94043 0.0966,-0.39884 1.06772,-2.51109 2.15802,-4.69391 2.44641,-4.89778 6.67101,-15.0686 6.67101,-16.06062 0,-1.60701 -0.75207,-2.01911 -14.02292,-7.68407 l -12.56771,-5.364808 -10.62198,-8.25087 c -9.748527,-7.57238 -10.656164,-8.34453 -11.037656,-9.39003 -0.228619,-0.62655 -1.486993,-5.3659 -2.796387,-10.53189 -3.116625,-12.2961 -2.836204,-11.4907 -4.035526,-11.59046 -0.745852,-0.062 -1.039267,0.0392 -1.248949,0.43102 -0.204137,0.38143 0.198022,3.71026 1.576054,13.04567 l 1.85012,12.53356 10.44593,10.3531 10.445924,10.353088 6.67999,3.91656 c 12.97825,7.60932 12.31949,7.18451 12.89712,8.31675 0.29135,0.57111 0.52974,1.39214 0.52974,1.8245 0,0.43237 -0.89297,3.37412 -1.98438,6.53723 -1.0914,3.1631 -1.98437,6.11906 -1.98437,6.56881 0,0.71394 0.74707,1.5608 5.88698,6.67337 3.23784,3.22061 6.06557,5.9189 6.28385,5.99619 0.21828,0.0773 0.41889,0.14991 0.4458,0.1614 0.0269,0.0115 0.35646,-0.096 0.73235,-0.23895 z"
         id="path248" /><path
         style="fill:#000000;stroke-width:1"
         d="m 130.93723,100.56511 c -1.2267,-0.26515 -21.7335,-10.044336 -22.69187,-10.821201 -0.44456,-0.360353 -1.13017,-1.229636 -1.52361,-1.931738 -2.00701,-3.581639 -0.29911,-8.355583 3.4971,-9.775068 1.65672,-0.619488 2.4111,-0.683157 3.94701,-0.333129 1.3205,0.300944 20.91727,9.507901 22.45436,10.54951 2.4966,1.691822 3.49887,5.460895 2.22611,8.371298 -1.33263,3.047251 -4.57271,4.661478 -7.9091,3.940328 z m 3.98648,-3.33759 c 0.84413,-0.513375 1.59097,-1.836964 1.73783,-3.079893 0.11817,-1.000065 -0.65093,-2.897117 -1.40819,-3.473448 -0.26394,-0.200892 -5.22817,-2.616655 -11.03162,-5.368382 -9.21824,-4.37085 -10.69588,-4.993155 -11.69228,-4.92414 -3.03485,0.210207 -4.81356,3.250951 -3.42509,5.855264 0.32379,0.607328 0.82699,1.278753 1.11821,1.492059 0.72627,0.531938 20.96319,10.096757 21.63255,10.22444 0.74661,0.142431 2.21004,-0.203798 3.06859,-0.7259 z"
         id="path404" /><path
         style="fill:#000000;stroke-width:1"
         d="m 158.12134,119.40589 c -1.84826,4.03887 -5.83916,6.5967 -10.36616,6.64383 -4.74427,0.0494 -9.18848,-3.37946 -10.55269,-8.14177 -0.51192,-1.78706 -0.51642,-2.08668 -0.0718,-4.78362 0.4504,-2.73214 0.53277,-2.95884 1.63378,-4.49835 4.42494,-6.1871 13.38861,-6.42225 17.91256,-0.46992 2.50467,3.29549 3.06986,7.6977 1.44434,11.24983 z m -2.24789,-6.67219 c -0.54909,-1.91582 -1.85136,-3.71088 -3.50328,-4.82891 -1.70082,-1.15114 -4.79771,-1.58094 -6.77385,-0.94011 -3.21535,1.04269 -5.30452,3.41017 -5.84072,6.61878 -0.26148,1.56772 -0.22183,2.13363 0.26542,3.74241 1.73534,5.72968 8.40903,7.7371 13.13729,3.95166 1.73212,-1.38674 2.45893,-2.65751 2.87747,-5.03106 0.26291,-1.49097 0.23328,-2.13243 -0.16233,-3.51277 z"
         id="path402" /><path
         style="fill:#d5d5dd;stroke:#000000;stroke-width:2.2;stroke-linecap:round;stroke-linejoin:round;stroke-dasharray:none;stroke-opacity:1;paint-order:stroke fill markers"
         d="M 114.34906,91.657217 119.0209,81.423645"
         id="path482" /><path
         style="fill:#d5d5dd;stroke:#000000;stroke-width:2.2;stroke-linecap:round;stroke-linejoin:round;stroke-dasharray:none;stroke-opacity:1;paint-order:stroke fill markers"
         d="m 137.81954,96.551536 3.11456,1.779753"
         id="path482-0"
         sodipodi:nodetypes="cc" /><path
         style="fill:#d5d5dd;stroke:#000000;stroke-width:2.20001;stroke-linecap:round;stroke-linejoin:round;stroke-dasharray:none;stroke-opacity:1;paint-order:stroke fill markers"
         d="m 141.15657,107.89744 13.5706,10.90099"
         id="path482-8"
         sodipodi:nodetypes="cc" /><rect
         style="fill:#000000;fill-opacity:1;stroke:#000000;stroke-width:2.20017;stroke-linecap:round;stroke-linejoin:round;stroke-dasharray:none;stroke-opacity:1;paint-order:stroke fill markers"
         id="rect2618"
         width="2.0739553"
         height="8.0434666"
         x="196.52165"
         y="-1.594975"
         transform="matrix(0.79885458,0.6015242,-0.58717962,0.80945667,0,0)" /><ellipse
         style="fill:#000000;fill-opacity:1;stroke:#000000;stroke-width:2.2;stroke-linecap:round;stroke-linejoin:round;stroke-dasharray:none;stroke-opacity:1;paint-order:stroke fill markers"
         id="path2672"
         cx="147.49695"
         cy="126.69608"
         rx="2.0022209"
         ry="1.0011104" /><circle
         style="fill:#000000;fill-opacity:1;stroke:#000000;stroke-width:2.2;stroke-linecap:round;stroke-linejoin:round;stroke-dasharray:none;stroke-opacity:1;paint-order:stroke fill markers"
         id="path3422"
         cx="142.04643"
         cy="98.887459"
         r="1.2235793" /><path
         style="fill:none;fill-opacity:1;stroke:#000000;stroke-width:1.8;stroke-linecap:round;stroke-linejoin:round;stroke-dasharray:none;stroke-opacity:1;paint-order:stroke fill markers"
         d="m 141.71274,99.221162 c 0,0 -18.53759,5.768788 -17.68628,16.351468 0.8513,10.58268 24.13788,11.90209 24.13788,11.90209"
         id="path3478"
         sodipodi:nodetypes="czc" /></g></g></svg>
